<svg xmlns="http://www.w3.org/2000/svg" version="1.1" xmlns:xlink="http://www.w3.org/1999/xlink" width="512" height="512" x="0" y="0" viewBox="0 0 60 60" style="enable-background:new 0 0 512 512" xml:space="preserve" class=""><g><path fill="#16a34a" d="M29.001 58.712C23.365 55.091 8.983 44.114 7.153 27.617 5.607 13.688 16.022 1.005 29.972 1 42.689.996 53 11.353 53 24.129c0 18.43-16.004 30.703-22.034 34.579a1.812 1.812 0 0 1-1.966.005z" opacity="1" data-original="#e14533" class=""></path><path fill="#ffffff" d="M49 24c0 5.94-2.73 11.24-7 14.72-.11.1-.23.19-.35.28h-23.3c-.12-.09-.24-.18-.35-.28-4.27-3.48-7-8.78-7-14.72 0-10.49 8.51-19 19-19s19 8.51 19 19z" opacity="1" data-original="#ffffff" class=""></path><path fill="#c6c6c6" d="M41.65 39c-3.21 2.51-7.26 4-11.65 4s-8.44-1.49-11.65-4l.65-1h22z" opacity="1" data-original="#c6c6c6"></path><path fill="#dddddd" d="M42 21v17.72c-.11.1-.23.19-.35.28h-23.3c-.12-.09-.24-.18-.35-.28V21z" opacity="1" data-original="#dddddd" class=""></path><path fill="#2a2e44" d="M22 39V29a1 1 0 0 1 1-1h3a1 1 0 0 1 1 1v10z" opacity="1" data-original="#2a2e44"></path><rect width="7" height="6" x="31" y="28" fill="#58c7e0" rx="1" opacity="1" data-original="#58c7e0" class=""></rect><path fill="#16a34a" d="M39 13v3H21v-3c0-1.1.9-2 2-2h14c1.1 0 2 .9 2 2z" opacity="1" data-original="#e14533" class=""></path><path fill="#16a34a" d="M42.83 19c-.07-.15-.18-.28-.32-.39L39 15h-3.67L35 16h-3l-.6-1h-2.8l-.6 1h-3l-.33-1H21l-3.51 3.61c-.14.11-.25.24-.32.39-.11.19-.17.4-.17.62V22c0 .55.45 1 1 1h4l1-1h3l1 1h6l1-1h3l1 1h4c.55 0 1-.45 1-1v-2.38c0-.22-.06-.43-.17-.62z" opacity="1" data-original="#e14533" class=""></path><path fill="#16a32a" d="M24.67 15 22 19h-4.83c.07-.15.18-.28.32-.39L21 15z" opacity="1" data-original="#c6352a" class=""></path><path fill="#ffffff" d="M22 19h5v4h-5zM33 19h5v4h-5z" opacity="1" data-original="#ffffff" class=""></path><path fill="#16a32a" d="M42.83 19H38l-2.67-4H39l3.51 3.61c.14.11.25.24.32.39z" opacity="1" data-original="#c6352a" class=""></path><path fill="#dddddd" d="M28.6 15 27 19h-5l2.67-4z" opacity="1" data-original="#dddddd" class=""></path><path fill="#16a32a" d="M33 19h-6l1.6-4h2.8z" opacity="1" data-original="#c6352a" class=""></path><path fill="#dddddd" d="M38 19h-5l-1.6-4h3.93z" opacity="1" data-original="#dddddd" class=""></path></g></svg>